<svg xmlns="http://www.w3.org/2000/svg" viewBox="0 0 512 512" width="512" height="512" role="img" aria-label="Logo Valentin Maths 1re">
  <defs>
    <clipPath id="tile"><rect x="0" y="0" width="512" height="512" rx="112"/></clipPath>
  </defs>

  <!-- Tuile blanche -->
  <rect x="0" y="0" width="512" height="512" rx="112" fill="#FFFFFF"/>

  <!-- Cahier : quadrillage + marge rouge -->
  <g clip-path="url(#tile)">
    <g stroke="#D3E3F2" stroke-width="2">
      <line x1="42" y1="0" x2="42" y2="512" />
      <line x1="84" y1="0" x2="84" y2="512" />
      <line x1="126" y1="0" x2="126" y2="512" />
      <line x1="168" y1="0" x2="168" y2="512" />
      <line x1="210" y1="0" x2="210" y2="512" />
      <line x1="252" y1="0" x2="252" y2="512" />
      <line x1="294" y1="0" x2="294" y2="512" />
      <line x1="336" y1="0" x2="336" y2="512" />
      <line x1="378" y1="0" x2="378" y2="512" />
      <line x1="420" y1="0" x2="420" y2="512" />
      <line x1="462" y1="0" x2="462" y2="512" />
      <line x1="504" y1="0" x2="504" y2="512" />
      <line x1="0" y1="42" x2="512" y2="42" />
      <line x1="0" y1="84" x2="512" y2="84" />
      <line x1="0" y1="126" x2="512" y2="126" />
      <line x1="0" y1="168" x2="512" y2="168" />
      <line x1="0" y1="210" x2="512" y2="210" />
      <line x1="0" y1="252" x2="512" y2="252" />
      <line x1="0" y1="294" x2="512" y2="294" />
      <line x1="0" y1="336" x2="512" y2="336" />
      <line x1="0" y1="378" x2="512" y2="378" />
      <line x1="0" y1="420" x2="512" y2="420" />
      <line x1="0" y1="462" x2="512" y2="462" />
      <line x1="0" y1="504" x2="512" y2="504" />
    </g>
    <line x1="104" y1="0" x2="104" y2="512" stroke="#E4452F" stroke-width="5" opacity="0.55"/>
  </g>

  <!-- Coup de surligneur jaune -->
  <rect x="138" y="276" width="210" height="46" rx="23" fill="#FFF06B" opacity="0.9"
        transform="rotate(-10 243 299)"/>

  <!-- Le « V » qui est aussi un radical √ -->
  <path d="M 118 272 L 146 258 L 222 372 L 312 132 L 408 132"
        fill="none" stroke="#2B50C8" stroke-width="36"
        stroke-linecap="round" stroke-linejoin="round"/>

  <!-- Coche verte « correct » -->
  <path d="M 332 332 L 352 354 L 392 306"
        fill="none" stroke="#2FA36B" stroke-width="18"
        stroke-linecap="round" stroke-linejoin="round"/>

  <!-- ÉTIQUETTE DE NIVEAU (coin bas-droit), légèrement inclinée -->
  <g transform="rotate(-8 392 432)">
    <!-- ombre portée douce -->
    <rect x="300" y="402" width="184" height="86" rx="20" fill="#1C2B4A" opacity="0.14"
          transform="translate(3,5)"/>
    <!-- corps de l'étiquette -->
    <rect x="300" y="402" width="184" height="86" rx="20" fill="#F08A24"/>
    <!-- pli / coin replié plus foncé, en haut à gauche de l'étiquette -->
    <path d="M 300 422 L 300 402 L 320 402 Z" fill="#C56A0C"/>
    <!-- petit œillet (trou de l'étiquette) -->
    <circle cx="324" cy="445" r="9" fill="#FFFFFF" opacity="0.92"/>
    <circle cx="324" cy="445" r="9" fill="none" stroke="#C56A0C" stroke-width="3"/>
    <!-- texte du niveau -->
    <text x="406" y="460" text-anchor="middle"
          font-family="'Outfit','Segoe UI',sans-serif" font-weight="800"
          font-size="58" fill="#FFFFFF">1re</text>
  </g>

  <!-- Contour discret de la tuile -->
  <rect x="1.5" y="1.5" width="509" height="509" rx="110.5"
        fill="none" stroke="#E2E6EE" stroke-width="3"/>

</svg>